<svg fill="#95e1d3" id="Capa_1" enable-background="new 0 0 511.964 511.964" height="512" viewBox="0 0 511.964 511.964" width="512" xmlns="http://www.w3.org/2000/svg"><g><path d="m355.946 179.964c0-11.046-8.954-20-20-20h-60v-60c0-11.046-8.954-20-20-20s-20 8.954-20 20v80c0 11.046 8.954 20 20 20h80c11.046 0 20-8.955 20-20z"/><path d="m360.452 326.22c47.271-33.783 75.494-88.458 75.494-146.256 0-115.787-107.997-202.568-224.014-174.727-62.308 14.951-113.154 64.442-129.535 126.085-19.877 74.796 7.584 151.554 69.961 195.55 14.771 10.418 23.588 29.113 23.588 50.01v19.083h-20c-11.046 0-20 8.954-20 20s8.954 20 20 20h20.102c2.091 42.261 37.128 76 79.898 76s77.807-33.739 79.898-76h20.102c11.046 0 20-8.954 20-20s-8.954-20-20-20h-20v-17.297c0-21.876 9.161-41.482 24.506-52.448zm-104.506 145.744c-20.706 0-37.786-15.815-39.8-36h79.599c-2.013 20.185-19.093 36-39.799 36zm-40-76v-19.083c0-33.881-15.153-64.796-40.533-82.698-48.554-34.246-69.89-94.14-54.358-152.589 12.659-47.637 51.994-85.893 100.21-97.463 91.565-21.971 174.681 46.61 174.681 135.831 0 44.912-21.963 87.422-58.751 113.713-25.829 18.458-41.249 50.229-41.249 84.99v17.297h-80z"/></g></svg>