<svg fill="#95e1d3" height="448pt" viewBox="0 0 448 448" width="448pt" xmlns="http://www.w3.org/2000/svg"><path d="m224 120c-57.4375 0-104 46.5625-104 104s46.5625 104 104 104 104-46.5625 104-104c-.066406-57.410156-46.589844-103.933594-104-104zm0 200c-53.019531 0-96-42.980469-96-96s42.980469-96 96-96 96 42.980469 96 96c-.058594 52.996094-43.003906 95.941406-96 96zm0 0"/><path d="m304 224c0 44.183594-35.816406 80-80 80s-80-35.816406-80-80 35.816406-80 80-80 80 35.816406 80 80zm0 0"/><path d="m48 272c0 13.253906-10.746094 24-24 24s-24-10.746094-24-24 10.746094-24 24-24 24 10.746094 24 24zm0 0"/><path d="m64 136c0 13.253906-10.746094 24-24 24s-24-10.746094-24-24 10.746094-24 24-24 24 10.746094 24 24zm0 0"/><path d="m48 24c0 13.253906-10.746094 24-24 24s-24-10.746094-24-24 10.746094-24 24-24 24 10.746094 24 24zm0 0"/><path d="m48 424c0 13.253906-10.746094 24-24 24s-24-10.746094-24-24 10.746094-24 24-24 24 10.746094 24 24zm0 0"/><path d="m448 272c0 13.253906-10.746094 24-24 24s-24-10.746094-24-24 10.746094-24 24-24 24 10.746094 24 24zm0 0"/><path d="m432 136c0 13.253906-10.746094 24-24 24s-24-10.746094-24-24 10.746094-24 24-24 24 10.746094 24 24zm0 0"/><path d="m288 24c0 13.253906-10.746094 24-24 24s-24-10.746094-24-24 10.746094-24 24-24 24 10.746094 24 24zm0 0"/><path d="m224 424c0 13.253906-10.746094 24-24 24s-24-10.746094-24-24 10.746094-24 24-24 24 10.746094 24 24zm0 0"/><path d="m448 24c0 13.253906-10.746094 24-24 24s-24-10.746094-24-24 10.746094-24 24-24 24 10.746094 24 24zm0 0"/><path d="m448 424c0 13.253906-10.746094 24-24 24s-24-10.746094-24-24 10.746094-24 24-24 24 10.746094 24 24zm0 0"/><path d="m112 88c0 4.417969 3.582031 8 8 8h56v18.078125c5.175781-2.332031 10.523438-4.257813 16-5.757813v-20.320312c0-4.417969-3.582031-8-8-8h-56v-56c0-4.417969-3.582031-8-8-8h-64v16h56zm0 0"/><path d="m216 32h16v-16h-24c-4.417969 0-8 3.582031-8 8v82.398438c5.277344-1.058594 10.625-1.753907 16-2.078126zm0 0"/><path d="m272 96v18.078125c5.566406 2.363281 10.921875 5.199219 16 8.480469v-18.558594h48c4.417969 0 8-3.582031 8-8v-64h48v-16h-56c-4.417969 0-8 3.582031-8 8v64h-48c-4.417969 0-8 3.582031-8 8zm0 0"/><path d="m376 128h-80c6.273438 4.78125 12.082031 10.136719 17.359375 16h62.640625zm0 0"/><path d="m368 224c0-4.417969-3.582031-8-8-8h-16.320312c.242187 2.640625.320312 5.28125.320312 8s-.078125 5.359375-.320312 8h8.320312v40c0 4.417969 3.582031 8 8 8h32v-16h-24zm0 0"/><path d="m336 312c0-4.417969-3.582031-8-8-8h-32v16h24v104c0 4.417969 3.582031 8 8 8h64v-16h-56zm0 0"/><path d="m224 352h-24c-4.417969 0-8 3.582031-8 8v32h16v-24h24c4.417969 0 8-3.582031 8-8v-17.121094c-5.300781.742188-10.648438 1.113282-16 1.121094zm0 0"/><path d="m134.640625 304h-22.640625c-4.417969 0-8 3.582031-8 8v104h-48v16h56c4.417969 0 8-3.582031 8-8v-104h32c-6.273438-4.78125-12.082031-10.136719-17.359375-16zm0 0"/><path d="m88 216c-4.417969 0-8 3.582031-8 8v40h-24v16h32c4.417969 0 8-3.582031 8-8v-40h8.320312c-.242187-2.640625-.320312-5.28125-.320312-8s.078125-5.359375.320312-8zm0 0"/><path d="m110.878906 184h-62.878906v-16h-16v24c0 4.417969 3.582031 8 8 8h66.398438c1.117187-5.433594 2.613281-10.777344 4.480468-16zm0 0"/></svg>