<svg xmlns="http://www.w3.org/2000/svg" fill="#95e1d3" viewBox="0 0 512 512"><path d="M256.309 33.391c-129.224 0-234.358 105.133-234.358 234.358s105.133 234.357 234.358 234.357 234.357-105.133 234.357-234.357c.001-129.225-105.132-234.358-234.357-234.358zm0 431.614c-108.769 0-197.256-88.487-197.256-197.256S147.54 70.493 256.309 70.493s197.256 88.493 197.256 197.256-88.487 197.256-197.256 197.256z"/><path d="M346.589 256h-74.203V146.551c0-10.246-8.305-18.551-18.551-18.551-10.246 0-18.551 8.305-18.551 18.551v128c0 10.246 8.305 18.551 18.551 18.551h92.754c10.252 0 18.551-8.305 18.551-18.551S356.836 256 346.589 256zM125.273 419.154c-7.903-6.518-19.59-5.392-26.113 2.504l-49.469 59.981c-6.518 7.909-5.392 19.596 2.51 26.119A18.476 18.476 0 0063.993 512c5.343 0 10.648-2.3 14.321-6.746l49.469-59.981c6.518-7.909 5.393-19.596-2.51-26.119zm337.66 62.485l-49.469-59.981c-6.511-7.896-18.211-9.022-26.119-2.504-7.896 6.524-9.022 18.217-2.504 26.119l49.469 59.981c3.661 4.446 8.972 6.746 14.321 6.746 4.155 0 8.335-1.391 11.798-4.242 7.896-6.524 9.022-18.217 2.504-26.119zM99.246 0C45.035 0 .928 44.107.928 98.319c0 36.205 20.097 69.485 52.443 86.836l17.543-32.693C50.632 141.585 38.03 120.833 38.03 98.319c0-33.756 27.461-61.217 61.217-61.217 24.196 0 46.16 14.556 55.955 37.083l34.022-14.797C173.542 23.312 138.221 0 99.246 0zm313.508 0c-40.162 0-75.792 23.968-90.787 61.069l34.399 13.901c9.3-23.003 31.431-37.868 56.382-37.868 33.756 0 61.217 27.461 61.217 61.217 0 22.62-11.891 42.667-31.821 53.624l17.889 32.507c31.481-17.32 51.039-50.322 51.039-86.131C511.072 44.107 466.971 0 412.754 0z"/></svg>