<svg fill="#95e1d3" height="448pt" viewBox="0 0 448 448" width="448pt" xmlns="http://www.w3.org/2000/svg"><path d="M224 120c-57.438 0-104 46.563-104 104s46.563 104 104 104 104-46.563 104-104c-.066-57.41-46.59-103.934-104-104zm0 200c-53.02 0-96-42.98-96-96s42.98-96 96-96 96 42.98 96 96c-.059 52.996-43.004 95.941-96 96zm0 0"/><path d="M304 224c0 44.184-35.816 80-80 80s-80-35.816-80-80 35.816-80 80-80 80 35.816 80 80zM48 272c0 13.254-10.746 24-24 24S0 285.254 0 272s10.746-24 24-24 24 10.746 24 24zm16-136c0 13.254-10.746 24-24 24s-24-10.746-24-24 10.746-24 24-24 24 10.746 24 24zM48 24c0 13.254-10.746 24-24 24S0 37.254 0 24 10.746 0 24 0s24 10.746 24 24zm0 400c0 13.254-10.746 24-24 24S0 437.254 0 424s10.746-24 24-24 24 10.746 24 24zm400-152c0 13.254-10.746 24-24 24s-24-10.746-24-24 10.746-24 24-24 24 10.746 24 24zm-16-136c0 13.254-10.746 24-24 24s-24-10.746-24-24 10.746-24 24-24 24 10.746 24 24zM288 24c0 13.254-10.746 24-24 24s-24-10.746-24-24 10.746-24 24-24 24 10.746 24 24zm-64 400c0 13.254-10.746 24-24 24s-24-10.746-24-24 10.746-24 24-24 24 10.746 24 24zM448 24c0 13.254-10.746 24-24 24s-24-10.746-24-24 10.746-24 24-24 24 10.746 24 24zm0 400c0 13.254-10.746 24-24 24s-24-10.746-24-24 10.746-24 24-24 24 10.746 24 24zM112 88a8 8 0 008 8h56v18.078a109.108 109.108 0 0116-5.758V88a8 8 0 00-8-8h-56V24a8 8 0 00-8-8H56v16h56zm104-56h16V16h-24a8 8 0 00-8 8v82.398a117.267 117.267 0 0116-2.078zm56 64v18.078a105.322 105.322 0 0116 8.48V104h48a8 8 0 008-8V32h48V16h-56a8 8 0 00-8 8v64h-48a8 8 0 00-8 8zm104 32h-80a126.597 126.597 0 0117.36 16H376zm-8 96a8 8 0 00-8-8h-16.32c.242 2.64.32 5.281.32 8s-.078 5.36-.32 8H352v40a8 8 0 008 8h32v-16h-24zm-32 88a8 8 0 00-8-8h-32v16h24v104a8 8 0 008 8h64v-16h-56zm-112 40h-24a8 8 0 00-8 8v32h16v-24h24a8 8 0 008-8v-17.121c-5.3.742-10.648 1.113-16 1.121zm-89.36-48H112a8 8 0 00-8 8v104H56v16h56a8 8 0 008-8V320h32a126.597 126.597 0 01-17.36-16zM88 216a8 8 0 00-8 8v40H56v16h32a8 8 0 008-8v-40h8.32c-.242-2.64-.32-5.281-.32-8s.078-5.36.32-8zm22.879-32H48v-16H32v24a8 8 0 008 8h66.398a118.263 118.263 0 014.48-16zm0 0"/></svg>