<svg fill="#95e1d3" xmlns="http://www.w3.org/2000/svg" viewBox="0 0 512 512"><path d="M464 0H48C21.49 0 0 21.49 0 48v416c0 26.51 21.49 48 48 48h416c26.51 0 48-21.49 48-48V48c0-26.51-21.49-48-48-48zm16 313.44l-68.64-68.64c-6.241-6.204-16.319-6.204-22.56 0L304 329.44 203.36 228.8c-6.241-6.204-16.319-6.204-22.56 0L32 377.44V48c0-8.837 7.163-16 16-16h416c8.837 0 16 7.163 16 16v265.44z"/><path d="M288 80c-35.346 0-64 28.654-64 64 0 35.346 28.654 64 64 64 35.346 0 64-28.654 64-64 0-35.346-28.654-64-64-64zm0 96c-17.673 0-32-14.327-32-32s14.327-32 32-32c17.673 0 32 14.327 32 32s-14.327 32-32 32z"/></svg>