<svg fill="#95e1d3" height="512" viewBox="0 0 511.999 511.999" width="512" xmlns="http://www.w3.org/2000/svg"><path d="M312.506 174.017c-8.057 1.93-13.023 10.025-11.094 18.081 1.93 8.057 10.027 13.024 18.081 11.094 19.481-4.666 38.661-7.032 57.006-7.032 18.346 0 37.525 2.366 57.005 7.032a15.06 15.06 0 003.506.416c6.779 0 12.927-4.628 14.575-11.509 1.93-8.057-3.037-16.152-11.093-18.082-21.767-5.213-43.297-7.857-63.994-7.857-20.694 0-42.225 2.644-63.992 7.857zm127.987 60.003c-21.768-5.213-43.298-7.856-63.993-7.856s-42.226 2.643-63.994 7.856c-8.056 1.929-13.023 10.024-11.094 18.081 1.929 8.056 10.025 13.025 18.081 11.094 19.482-4.665 38.662-7.031 57.006-7.031 18.345 0 37.524 2.366 57.006 7.031 1.174.281 2.349.416 3.506.416 6.779 0 12.927-4.627 14.575-11.51 1.93-8.057-3.037-16.152-11.093-18.081zm0 60.003c-21.768-5.213-43.298-7.856-63.993-7.856s-42.226 2.643-63.994 7.856c-8.056 1.929-13.023 10.024-11.094 18.081 1.929 8.056 10.025 13.026 18.081 11.094 19.482-4.665 38.662-7.031 57.006-7.031 18.345 0 37.524 2.366 57.006 7.031 1.174.281 2.349.416 3.506.416 6.779 0 12.927-4.627 14.575-11.51 1.93-8.057-3.037-16.152-11.093-18.081zm0 60.003c-21.768-5.213-43.298-7.856-63.993-7.856s-42.226 2.644-63.994 7.856c-8.056 1.929-13.023 10.025-11.094 18.081s10.025 13.022 18.081 11.094c19.482-4.665 38.662-7.031 57.006-7.031 18.345 0 37.524 2.366 57.006 7.031 1.174.281 2.349.416 3.506.416 6.779 0 12.927-4.628 14.575-11.51 1.93-8.057-3.037-16.152-11.093-18.081zM71.506 174.017c-8.057 1.93-13.023 10.025-11.094 18.081 1.93 8.057 10.029 13.024 18.081 11.094 19.481-4.666 38.661-7.032 57.006-7.032 18.346 0 37.525 2.366 57.005 7.032a15.06 15.06 0 003.506.416c6.779 0 12.927-4.628 14.575-11.509 1.93-8.057-3.037-16.152-11.093-18.082-21.767-5.213-43.297-7.857-63.994-7.857-20.694 0-42.225 2.644-63.992 7.857zm127.987 60.003c-21.768-5.213-43.298-7.856-63.993-7.856s-42.226 2.643-63.994 7.856c-8.056 1.929-13.023 10.024-11.094 18.081 1.929 8.056 10.021 13.025 18.081 11.094 19.482-4.665 38.662-7.031 57.006-7.031s37.524 2.366 57.006 7.031c1.174.281 2.35.416 3.506.416 6.779 0 12.927-4.627 14.575-11.51 1.931-8.057-3.037-16.152-11.093-18.081zm0 60.003c-21.768-5.213-43.298-7.856-63.993-7.856s-42.226 2.643-63.994 7.856c-8.056 1.929-13.023 10.024-11.094 18.081 1.929 8.055 10.021 13.026 18.081 11.094 19.482-4.665 38.662-7.031 57.006-7.031s37.524 2.366 57.006 7.031c1.174.281 2.35.416 3.506.416 6.779 0 12.927-4.627 14.575-11.51 1.931-8.057-3.037-16.152-11.093-18.081zm0 60.003c-21.768-5.213-43.298-7.856-63.993-7.856s-42.226 2.644-63.994 7.856c-8.056 1.929-13.023 10.025-11.094 18.081s10.021 13.025 18.081 11.094c19.482-4.665 38.662-7.031 57.006-7.031s37.524 2.366 57.006 7.031c1.174.281 2.35.416 3.506.416 6.779 0 12.927-4.628 14.575-11.51 1.931-8.057-3.037-16.152-11.093-18.081z"/><path d="M504.101 131.945c-.857-.46-8.877-4.711-22.104-9.915V70.823a15 15 0 00-9.025-13.758c-1.433-.623-35.789-15.241-96.473-15.241-60.613 0-94.207 27.211-111.714 50.038a127.966 127.966 0 00-8.786 13.071 127.677 127.677 0 00-8.785-13.071C229.707 69.035 196.113 41.824 135.5 41.824c-60.684 0-95.041 14.619-96.473 15.241a15 15 0 00-9.024 13.758v51.207c-13.228 5.203-21.248 9.455-22.104 9.915A15 15 0 000 145.157v310.015a15 15 0 007.295 12.859 15.017 15.017 0 0014.789.362c.51-.272 51.693-27.222 113.416-27.222s112.906 26.95 113.397 27.212a14.944 14.944 0 007.089 1.791h.013v-.017a15.015 15.015 0 007.084-1.764c.51-.272 51.693-27.222 113.416-27.222 61.516 0 112.562 26.769 113.409 27.218a14.996 14.996 0 0014.787-.343 15 15 0 007.304-12.875V145.157a15 15 0 00-7.898-13.212zM376.5 71.824c36.881 0 62.761 5.93 75.498 9.704v30.444c-21.082-5.902-47.142-10.815-75.498-10.815-36.835 0-69.793 8.287-92.994 16.268a97.432 97.432 0 015.084-7.306c19.49-25.411 49.067-38.295 87.91-38.295zM60.002 81.53c12.76-3.782 38.633-9.706 75.498-9.706 52.768 0 79.698 24.482 93.121 45.646-23.208-7.995-56.218-16.313-93.121-16.313-28.356 0-54.416 4.912-75.498 10.815zM241 432.047c-22.898-9.009-61.419-20.875-105.499-20.875-44.07 0-82.598 11.864-105.5 20.873V154.606c16.713-7.477 57.983-23.448 105.5-23.448 47.522 0 88.79 15.974 105.499 23.449zm240.999-.002c-22.902-9.008-61.43-20.873-105.499-20.873-44.07 0-82.598 11.864-105.5 20.873v-277.44c16.713-7.476 57.983-23.448 105.5-23.448 47.524 0 88.8 15.977 105.499 23.447z"/></svg>