<svg fill="#95e1d3" xmlns="http://www.w3.org/2000/svg" viewBox="0 0 480 480"><path d="M160 32c-17.673 0-32 14.327-32 32H32C14.327 64 0 78.327 0 96s14.327 32 32 32h96c0 17.673 14.327 32 32 32s32-14.327 32-32V64c0-17.673-14.327-32-32-32zm288 176h-64c0-17.673-14.327-32-32-32-17.673 0-32 14.327-32 32v64c0 17.673 14.327 32 32 32 17.673 0 32-14.327 32-32h64c17.673 0 32-14.327 32-32s-14.327-32-32-32zm0-144H240c-17.673 0-32 14.327-32 32s14.327 32 32 32h208c17.673 0 32-14.327 32-32s-14.327-32-32-32zM272 208H32c-17.673 0-32 14.327-32 32s14.327 32 32 32h240c17.673 0 32-14.327 32-32s-14.327-32-32-32zm176 144H320c-17.673 0-32 14.327-32 32 0 17.673 14.327 32 32 32h128c17.673 0 32-14.327 32-32 0-17.673-14.327-32-32-32zm-208-32c-17.673 0-32 14.327-32 32H32c-17.673 0-32 14.327-32 32 0 17.673 14.327 32 32 32h176c0 17.673 14.327 32 32 32 17.673 0 32-14.327 32-32v-64c0-17.673-14.327-32-32-32z"/></svg>