<svg xmlns="http://www.w3.org/2000/svg" fill="#fff" viewBox="0 0 490.667 490.667"><circle cx="245.333" cy="160" r="74.667"/><circle cx="394.667" cy="224" r="53.333"/><circle cx="97.515" cy="224" r="53.333"/><path d="M245.333 256c-76.459 0-138.667 62.208-138.667 138.667 0 5.888 4.779 10.667 10.667 10.667h256c5.888 0 10.667-4.779 10.667-10.667C384 318.208 321.792 256 245.333 256zm-129.429 44.971c-6.528-1.387-13.163-2.304-19.904-2.304-52.928 0-96 43.072-96 96 0 5.888 4.779 10.667 10.667 10.667h76.629c-1.195-3.349-1.963-6.912-1.963-10.667 0-35.008 11.435-67.328 30.571-93.696zm278.763-2.304c-6.741 0-13.376.917-19.904 2.304 19.136 26.368 30.571 58.688 30.571 93.696 0 3.755-.768 7.317-1.963 10.667H480c5.888 0 10.667-4.779 10.667-10.667 0-52.928-43.072-96-96-96z"/></svg>